<?xml version="1.0" encoding="utf-8" standalone="no"?>
<!DOCTYPE svg PUBLIC "-//W3C//DTD SVG 1.1//EN"
  "http://www.w3.org/Graphics/SVG/1.1/DTD/svg11.dtd">
<svg xmlns:xlink="http://www.w3.org/1999/xlink" width="661.373056pt" height="341.713609pt" viewBox="0 0 661.373056 341.713609" xmlns="http://www.w3.org/2000/svg" version="1.1">
 <metadata>
  <rdf:RDF xmlns:dc="http://purl.org/dc/elements/1.1/" xmlns:cc="http://creativecommons.org/ns#" xmlns:rdf="http://www.w3.org/1999/02/22-rdf-syntax-ns#">
   <cc:Work>
    <dc:type rdf:resource="http://purl.org/dc/dcmitype/StillImage"/>
    <dc:date>2026-09-14T16:07:09.871696</dc:date>
    <dc:format>image/svg+xml</dc:format>
    <dc:creator>
     <cc:Agent>
      <dc:title>Matplotlib v3.11.1, https://matplotlib.org/</dc:title>
     </cc:Agent>
    </dc:creator>
   </cc:Work>
  </rdf:RDF>
 </metadata>
 <defs>
  <style type="text/css">*{stroke-linejoin: round; stroke-linecap: butt}</style>
 </defs>
 <g id="figure_1">
  <g id="patch_1">
   <path d="M 0 341.713609 
L 661.373056 341.713609 
L 661.373056 0 
L 0 0 
z
" style="fill: #ffffff"/>
  </g>
  <g id="axes_1">
   <g id="patch_2">
    <path d="M 51.47125 250.91862 
L 315.779676 250.91862 
L 315.779676 32.597656 
L 51.47125 32.597656 
z
" style="fill: #ffffff"/>
   </g>
   <g id="matplotlib.axis_1">
    <g id="xtick_1">
     <g id="text_1">
      <!-- McVAMP -->
      <g style="fill: #262626" transform="translate(68.622487 303.907491) rotate(-30) scale(0.16 -0.16)">
       <defs>
        <path id="DejaVuSans-30" d="M 628 4666 
L 1569 4666 
L 2759 1491 
L 3956 4666 
L 4897 4666 
L 4897 0 
L 4281 0 
L 4281 4097 
L 3078 897 
L 2444 897 
L 1241 4097 
L 1241 0 
L 628 0 
L 628 4666 
z
" transform="scale(0.015625)"/>
        <path id="DejaVuSans-46" d="M 3122 3366 
L 3122 2828 
Q 2878 2963 2633 3030 
Q 2388 3097 2138 3097 
Q 1578 3097 1268 2742 
Q 959 2388 959 1747 
Q 959 1106 1268 751 
Q 1578 397 2138 397 
Q 2388 397 2633 464 
Q 2878 531 3122 666 
L 3122 134 
Q 2881 22 2623 -34 
Q 2366 -91 2075 -91 
Q 1284 -91 818 406 
Q 353 903 353 1747 
Q 353 2603 823 3093 
Q 1294 3584 2113 3584 
Q 2378 3584 2631 3529 
Q 2884 3475 3122 3366 
z
" transform="scale(0.015625)"/>
        <path id="DejaVuSans-39" d="M 1831 0 
L 50 4666 
L 709 4666 
L 2188 738 
L 3669 4666 
L 4325 4666 
L 2547 0 
L 1831 0 
z
" transform="scale(0.015625)"/>
        <path id="DejaVuSans-24" d="M 2188 4044 
L 1331 1722 
L 3047 1722 
L 2188 4044 
z
M 1831 4666 
L 2547 4666 
L 4325 0 
L 3669 0 
L 3244 1197 
L 1141 1197 
L 716 0 
L 50 0 
L 1831 4666 
z
" transform="scale(0.015625)"/>
        <path id="DejaVuSans-33" d="M 1259 4147 
L 1259 2394 
L 2053 2394 
Q 2494 2394 2734 2622 
Q 2975 2850 2975 3272 
Q 2975 3691 2734 3919 
Q 2494 4147 2053 4147 
L 1259 4147 
z
M 628 4666 
L 2053 4666 
Q 2838 4666 3239 4311 
Q 3641 3956 3641 3272 
Q 3641 2581 3239 2228 
Q 2838 1875 2053 1875 
L 1259 1875 
L 1259 0 
L 628 0 
L 628 4666 
z
" transform="scale(0.015625)"/>
       </defs>
       <use xlink:href="#DejaVuSans-30"/>
       <use xlink:href="#DejaVuSans-46" transform="translate(86.28125 0)"/>
       <use xlink:href="#DejaVuSans-39" transform="translate(141.265625 0)"/>
       <use xlink:href="#DejaVuSans-24" transform="translate(203.28125 0)"/>
       <use xlink:href="#DejaVuSans-30" transform="translate(271.6875 0)"/>
       <use xlink:href="#DejaVuSans-33" transform="translate(357.96875 0)"/>
      </g>
     </g>
    </g>
    <g id="xtick_2">
     <g id="text_2">
      <!-- LeaderFollower -->
      <g style="fill: #262626" transform="translate(133.103682 331.184824) rotate(-30) scale(0.16 -0.16)">
       <defs>
        <path id="DejaVuSans-2f" d="M 628 4666 
L 1259 4666 
L 1259 531 
L 3531 531 
L 3531 0 
L 628 0 
L 628 4666 
z
" transform="scale(0.015625)"/>
        <path id="DejaVuSans-48" d="M 3597 1894 
L 3597 1613 
L 953 1613 
Q 991 1019 1311 708 
Q 1631 397 2203 397 
Q 2534 397 2845 478 
Q 3156 559 3463 722 
L 3463 178 
Q 3153 47 2828 -22 
Q 2503 -91 2169 -91 
Q 1331 -91 842 396 
Q 353 884 353 1716 
Q 353 2575 817 3079 
Q 1281 3584 2069 3584 
Q 2775 3584 3186 3129 
Q 3597 2675 3597 1894 
z
M 3022 2063 
Q 3016 2534 2758 2815 
Q 2500 3097 2075 3097 
Q 1594 3097 1305 2825 
Q 1016 2553 972 2059 
L 3022 2063 
z
" transform="scale(0.015625)"/>
        <path id="DejaVuSans-44" d="M 2194 1759 
Q 1497 1759 1228 1600 
Q 959 1441 959 1056 
Q 959 750 1161 570 
Q 1363 391 1709 391 
Q 2188 391 2477 730 
Q 2766 1069 2766 1631 
L 2766 1759 
L 2194 1759 
z
M 3341 1997 
L 3341 0 
L 2766 0 
L 2766 531 
Q 2569 213 2275 61 
Q 1981 -91 1556 -91 
Q 1019 -91 701 211 
Q 384 513 384 1019 
Q 384 1609 779 1909 
Q 1175 2209 1959 2209 
L 2766 2209 
L 2766 2266 
Q 2766 2663 2505 2880 
Q 2244 3097 1772 3097 
Q 1472 3097 1187 3025 
Q 903 2953 641 2809 
L 641 3341 
Q 956 3463 1253 3523 
Q 1550 3584 1831 3584 
Q 2591 3584 2966 3190 
Q 3341 2797 3341 1997 
z
" transform="scale(0.015625)"/>
        <path id="DejaVuSans-47" d="M 2906 2969 
L 2906 4863 
L 3481 4863 
L 3481 0 
L 2906 0 
L 2906 525 
Q 2725 213 2448 61 
Q 2172 -91 1784 -91 
Q 1150 -91 751 415 
Q 353 922 353 1747 
Q 353 2572 751 3078 
Q 1150 3584 1784 3584 
Q 2172 3584 2448 3432 
Q 2725 3281 2906 2969 
z
M 947 1747 
Q 947 1113 1208 752 
Q 1469 391 1925 391 
Q 2381 391 2643 752 
Q 2906 1113 2906 1747 
Q 2906 2381 2643 2742 
Q 2381 3103 1925 3103 
Q 1469 3103 1208 2742 
Q 947 2381 947 1747 
z
" transform="scale(0.015625)"/>
        <path id="DejaVuSans-55" d="M 2631 2963 
Q 2534 3019 2420 3045 
Q 2306 3072 2169 3072 
Q 1681 3072 1420 2755 
Q 1159 2438 1159 1844 
L 1159 0 
L 581 0 
L 581 3500 
L 1159 3500 
L 1159 2956 
Q 1341 3275 1631 3429 
Q 1922 3584 2338 3584 
Q 2397 3584 2469 3576 
Q 2541 3569 2628 3553 
L 2631 2963 
z
" transform="scale(0.015625)"/>
        <path id="DejaVuSans-29" d="M 628 4666 
L 3309 4666 
L 3309 4134 
L 1259 4134 
L 1259 2759 
L 3109 2759 
L 3109 2228 
L 1259 2228 
L 1259 0 
L 628 0 
L 628 4666 
z
" transform="scale(0.015625)"/>
        <path id="DejaVuSans-52" d="M 1959 3097 
Q 1497 3097 1228 2736 
Q 959 2375 959 1747 
Q 959 1119 1226 758 
Q 1494 397 1959 397 
Q 2419 397 2687 759 
Q 2956 1122 2956 1747 
Q 2956 2369 2687 2733 
Q 2419 3097 1959 3097 
z
M 1959 3584 
Q 2709 3584 3137 3096 
Q 3566 2609 3566 1747 
Q 3566 888 3137 398 
Q 2709 -91 1959 -91 
Q 1206 -91 779 398 
Q 353 888 353 1747 
Q 353 2609 779 3096 
Q 1206 3584 1959 3584 
z
" transform="scale(0.015625)"/>
        <path id="DejaVuSans-4f" d="M 603 4863 
L 1178 4863 
L 1178 0 
L 603 0 
L 603 4863 
z
" transform="scale(0.015625)"/>
        <path id="DejaVuSans-5a" d="M 269 3500 
L 844 3500 
L 1563 769 
L 2278 3500 
L 2956 3500 
L 3675 769 
L 4391 3500 
L 4966 3500 
L 4050 0 
L 3372 0 
L 2619 2869 
L 1863 0 
L 1184 0 
L 269 3500 
z
" transform="scale(0.015625)"/>
       </defs>
       <use xlink:href="#DejaVuSans-2f"/>
       <use xlink:href="#DejaVuSans-48" transform="translate(53.96875 0)"/>
       <use xlink:href="#DejaVuSans-44" transform="translate(115.5 0)"/>
       <use xlink:href="#DejaVuSans-47" transform="translate(176.78125 0)"/>
       <use xlink:href="#DejaVuSans-48" transform="translate(240.265625 0)"/>
       <use xlink:href="#DejaVuSans-55" transform="translate(301.796875 0)"/>
       <use xlink:href="#DejaVuSans-29" transform="translate(342.90625 0)"/>
       <use xlink:href="#DejaVuSans-52" transform="translate(396.859375 0)"/>
       <use xlink:href="#DejaVuSans-4f" transform="translate(458.046875 0)"/>
       <use xlink:href="#DejaVuSans-4f" transform="translate(485.828125 0)"/>
       <use xlink:href="#DejaVuSans-52" transform="translate(513.609375 0)"/>
       <use xlink:href="#DejaVuSans-5a" transform="translate(574.796875 0)"/>
       <use xlink:href="#DejaVuSans-48" transform="translate(656.578125 0)"/>
       <use xlink:href="#DejaVuSans-55" transform="translate(718.109375 0)"/>
      </g>
     </g>
    </g>
    <g id="xtick_3">
     <g id="text_3">
      <!-- DualFollower -->
      <g style="fill: #262626" transform="translate(229.067837 322.107324) rotate(-30) scale(0.16 -0.16)">
       <defs>
        <path id="DejaVuSans-27" d="M 1259 4147 
L 1259 519 
L 2022 519 
Q 2988 519 3436 956 
Q 3884 1394 3884 2338 
Q 3884 3275 3436 3711 
Q 2988 4147 2022 4147 
L 1259 4147 
z
M 628 4666 
L 1925 4666 
Q 3281 4666 3915 4102 
Q 4550 3538 4550 2338 
Q 4550 1131 3912 565 
Q 3275 0 1925 0 
L 628 0 
L 628 4666 
z
" transform="scale(0.015625)"/>
        <path id="DejaVuSans-58" d="M 544 1381 
L 544 3500 
L 1119 3500 
L 1119 1403 
Q 1119 906 1312 657 
Q 1506 409 1894 409 
Q 2359 409 2629 706 
Q 2900 1003 2900 1516 
L 2900 3500 
L 3475 3500 
L 3475 0 
L 2900 0 
L 2900 538 
Q 2691 219 2414 64 
Q 2138 -91 1772 -91 
Q 1169 -91 856 284 
Q 544 659 544 1381 
z
M 1991 3584 
L 1991 3584 
z
" transform="scale(0.015625)"/>
       </defs>
       <use xlink:href="#DejaVuSans-27"/>
       <use xlink:href="#DejaVuSans-58" transform="translate(77 0)"/>
       <use xlink:href="#DejaVuSans-44" transform="translate(140.375 0)"/>
       <use xlink:href="#DejaVuSans-4f" transform="translate(201.65625 0)"/>
       <use xlink:href="#DejaVuSans-29" transform="translate(229.4375 0)"/>
       <use xlink:href="#DejaVuSans-52" transform="translate(283.390625 0)"/>
       <use xlink:href="#DejaVuSans-4f" transform="translate(344.578125 0)"/>
       <use xlink:href="#DejaVuSans-4f" transform="translate(372.359375 0)"/>
       <use xlink:href="#DejaVuSans-52" transform="translate(400.140625 0)"/>
       <use xlink:href="#DejaVuSans-5a" transform="translate(461.328125 0)"/>
       <use xlink:href="#DejaVuSans-48" transform="translate(543.109375 0)"/>
       <use xlink:href="#DejaVuSans-55" transform="translate(604.640625 0)"/>
      </g>
     </g>
    </g>
   </g>
   <g id="matplotlib.axis_2">
    <g id="ytick_1">
     <g id="line2d_1">
      <path d="M 51.47125 218.49649 
L 315.779676 218.49649 
" clip-path="url(#pd522eeff3f)" style="fill: none; stroke: #e0e0e0; stroke-width: 0.7; stroke-linecap: round"/>
     </g>
     <g id="text_4">
      <!-- 6 -->
      <g style="fill: #262626" transform="translate(34.83625 223.055084) scale(0.12 -0.12)">
       <defs>
        <path id="DejaVuSans-19" d="M 2113 2584 
Q 1688 2584 1439 2293 
Q 1191 2003 1191 1497 
Q 1191 994 1439 701 
Q 1688 409 2113 409 
Q 2538 409 2786 701 
Q 3034 994 3034 1497 
Q 3034 2003 2786 2293 
Q 2538 2584 2113 2584 
z
M 3366 4563 
L 3366 3988 
Q 3128 4100 2886 4159 
Q 2644 4219 2406 4219 
Q 1781 4219 1451 3797 
Q 1122 3375 1075 2522 
Q 1259 2794 1537 2939 
Q 1816 3084 2150 3084 
Q 2853 3084 3261 2657 
Q 3669 2231 3669 1497 
Q 3669 778 3244 343 
Q 2819 -91 2113 -91 
Q 1303 -91 875 529 
Q 447 1150 447 2328 
Q 447 3434 972 4092 
Q 1497 4750 2381 4750 
Q 2619 4750 2861 4703 
Q 3103 4656 3366 4563 
z
" transform="scale(0.015625)"/>
       </defs>
       <use xlink:href="#DejaVuSans-19"/>
      </g>
     </g>
    </g>
    <g id="ytick_2">
     <g id="line2d_2">
      <path d="M 51.47125 168.804711 
L 315.779676 168.804711 
" clip-path="url(#pd522eeff3f)" style="fill: none; stroke: #e0e0e0; stroke-width: 0.7; stroke-linecap: round"/>
     </g>
     <g id="text_5">
      <!-- 12 -->
      <g style="fill: #262626" transform="translate(27.20125 173.363305) scale(0.12 -0.12)">
       <defs>
        <path id="DejaVuSans-14" d="M 794 531 
L 1825 531 
L 1825 4091 
L 703 3866 
L 703 4441 
L 1819 4666 
L 2450 4666 
L 2450 531 
L 3481 531 
L 3481 0 
L 794 0 
L 794 531 
z
" transform="scale(0.015625)"/>
        <path id="DejaVuSans-15" d="M 1228 531 
L 3431 531 
L 3431 0 
L 469 0 
L 469 531 
Q 828 903 1448 1529 
Q 2069 2156 2228 2338 
Q 2531 2678 2651 2914 
Q 2772 3150 2772 3378 
Q 2772 3750 2511 3984 
Q 2250 4219 1831 4219 
Q 1534 4219 1204 4116 
Q 875 4013 500 3803 
L 500 4441 
Q 881 4594 1212 4672 
Q 1544 4750 1819 4750 
Q 2544 4750 2975 4387 
Q 3406 4025 3406 3419 
Q 3406 3131 3298 2873 
Q 3191 2616 2906 2266 
Q 2828 2175 2409 1742 
Q 1991 1309 1228 531 
z
" transform="scale(0.015625)"/>
       </defs>
       <use xlink:href="#DejaVuSans-14"/>
       <use xlink:href="#DejaVuSans-15" transform="translate(63.625 0)"/>
      </g>
     </g>
    </g>
    <g id="ytick_3">
     <g id="line2d_3">
      <path d="M 51.47125 119.112932 
L 315.779676 119.112932 
" clip-path="url(#pd522eeff3f)" style="fill: none; stroke: #e0e0e0; stroke-width: 0.7; stroke-linecap: round"/>
     </g>
     <g id="text_6">
      <!-- 18 -->
      <g style="fill: #262626" transform="translate(27.20125 123.671526) scale(0.12 -0.12)">
       <defs>
        <path id="DejaVuSans-1b" d="M 2034 2216 
Q 1584 2216 1326 1975 
Q 1069 1734 1069 1313 
Q 1069 891 1326 650 
Q 1584 409 2034 409 
Q 2484 409 2743 651 
Q 3003 894 3003 1313 
Q 3003 1734 2745 1975 
Q 2488 2216 2034 2216 
z
M 1403 2484 
Q 997 2584 770 2862 
Q 544 3141 544 3541 
Q 544 4100 942 4425 
Q 1341 4750 2034 4750 
Q 2731 4750 3128 4425 
Q 3525 4100 3525 3541 
Q 3525 3141 3298 2862 
Q 3072 2584 2669 2484 
Q 3125 2378 3379 2068 
Q 3634 1759 3634 1313 
Q 3634 634 3220 271 
Q 2806 -91 2034 -91 
Q 1263 -91 848 271 
Q 434 634 434 1313 
Q 434 1759 690 2068 
Q 947 2378 1403 2484 
z
M 1172 3481 
Q 1172 3119 1398 2916 
Q 1625 2713 2034 2713 
Q 2441 2713 2670 2916 
Q 2900 3119 2900 3481 
Q 2900 3844 2670 4047 
Q 2441 4250 2034 4250 
Q 1625 4250 1398 4047 
Q 1172 3844 1172 3481 
z
" transform="scale(0.015625)"/>
       </defs>
       <use xlink:href="#DejaVuSans-14"/>
       <use xlink:href="#DejaVuSans-1b" transform="translate(63.625 0)"/>
      </g>
     </g>
    </g>
    <g id="ytick_4">
     <g id="line2d_4">
      <path d="M 51.47125 69.421153 
L 315.779676 69.421153 
" clip-path="url(#pd522eeff3f)" style="fill: none; stroke: #e0e0e0; stroke-width: 0.7; stroke-linecap: round"/>
     </g>
     <g id="text_7">
      <!-- 24 -->
      <g style="fill: #262626" transform="translate(27.20125 73.979747) scale(0.12 -0.12)">
       <defs>
        <path id="DejaVuSans-17" d="M 2419 4116 
L 825 1625 
L 2419 1625 
L 2419 4116 
z
M 2253 4666 
L 3047 4666 
L 3047 1625 
L 3713 1625 
L 3713 1100 
L 3047 1100 
L 3047 0 
L 2419 0 
L 2419 1100 
L 313 1100 
L 313 1709 
L 2253 4666 
z
" transform="scale(0.015625)"/>
       </defs>
       <use xlink:href="#DejaVuSans-15"/>
       <use xlink:href="#DejaVuSans-17" transform="translate(63.625 0)"/>
      </g>
     </g>
    </g>
    <g id="text_8">
     <!-- Config-space distance (rad) -->
     <g style="fill: #262626" transform="translate(19.3575 266.120638) rotate(-90) scale(0.16 -0.16)">
      <defs>
       <path id="DejaVuSans-Bold-26" d="M 4288 256 
Q 3956 84 3597 -3 
Q 3238 -91 2847 -91 
Q 1681 -91 1000 561 
Q 319 1213 319 2328 
Q 319 3447 1000 4098 
Q 1681 4750 2847 4750 
Q 3238 4750 3597 4662 
Q 3956 4575 4288 4403 
L 4288 3438 
Q 3953 3666 3628 3772 
Q 3303 3878 2944 3878 
Q 2300 3878 1931 3465 
Q 1563 3053 1563 2328 
Q 1563 1606 1931 1193 
Q 2300 781 2944 781 
Q 3303 781 3628 887 
Q 3953 994 4288 1222 
L 4288 256 
z
" transform="scale(0.015625)"/>
       <path id="DejaVuSans-Bold-52" d="M 2203 2784 
Q 1831 2784 1636 2517 
Q 1441 2250 1441 1747 
Q 1441 1244 1636 976 
Q 1831 709 2203 709 
Q 2569 709 2762 976 
Q 2956 1244 2956 1747 
Q 2956 2250 2762 2517 
Q 2569 2784 2203 2784 
z
M 2203 3584 
Q 3106 3584 3614 3096 
Q 4122 2609 4122 1747 
Q 4122 884 3614 396 
Q 3106 -91 2203 -91 
Q 1297 -91 786 396 
Q 275 884 275 1747 
Q 275 2609 786 3096 
Q 1297 3584 2203 3584 
z
" transform="scale(0.015625)"/>
       <path id="DejaVuSans-Bold-51" d="M 4056 2131 
L 4056 0 
L 2931 0 
L 2931 347 
L 2931 1631 
Q 2931 2084 2911 2256 
Q 2891 2428 2841 2509 
Q 2775 2619 2662 2680 
Q 2550 2741 2406 2741 
Q 2056 2741 1856 2470 
Q 1656 2200 1656 1722 
L 1656 0 
L 538 0 
L 538 3500 
L 1656 3500 
L 1656 2988 
Q 1909 3294 2193 3439 
Q 2478 3584 2822 3584 
Q 3428 3584 3742 3212 
Q 4056 2841 4056 2131 
z
" transform="scale(0.015625)"/>
       <path id="DejaVuSans-Bold-13ab" d="M 3078 4863 
L 4206 4863 
L 4206 3950 
L 3078 3950 
L 3078 4863 
z
M 2847 4863 
L 2847 4128 
L 2228 4128 
Q 1994 4128 1903 4042 
Q 1813 3956 1813 3744 
L 1813 3500 
L 4206 3500 
L 4206 0 
L 3078 0 
L 3078 2700 
L 1813 2700 
L 1813 0 
L 684 0 
L 684 2700 
L 134 2700 
L 134 3500 
L 684 3500 
L 684 3744 
Q 684 4316 1003 4589 
Q 1322 4863 1991 4863 
L 2847 4863 
z
" transform="scale(0.015625)"/>
       <path id="DejaVuSans-Bold-4a" d="M 2919 594 
Q 2688 288 2409 144 
Q 2131 0 1766 0 
Q 1125 0 706 504 
Q 288 1009 288 1791 
Q 288 2575 706 3076 
Q 1125 3578 1766 3578 
Q 2131 3578 2409 3434 
Q 2688 3291 2919 2981 
L 2919 3500 
L 4044 3500 
L 4044 353 
Q 4044 -491 3511 -936 
Q 2978 -1381 1966 -1381 
Q 1638 -1381 1331 -1331 
Q 1025 -1281 716 -1178 
L 716 -306 
Q 1009 -475 1290 -558 
Q 1572 -641 1856 -641 
Q 2406 -641 2662 -400 
Q 2919 -159 2919 353 
L 2919 594 
z
M 2181 2772 
Q 1834 2772 1640 2515 
Q 1447 2259 1447 1791 
Q 1447 1309 1634 1061 
Q 1822 813 2181 813 
Q 2531 813 2725 1069 
Q 2919 1325 2919 1791 
Q 2919 2259 2725 2515 
Q 2531 2772 2181 2772 
z
" transform="scale(0.015625)"/>
       <path id="DejaVuSans-Bold-10" d="M 347 2297 
L 2309 2297 
L 2309 1388 
L 347 1388 
L 347 2297 
z
" transform="scale(0.015625)"/>
       <path id="DejaVuSans-Bold-56" d="M 3272 3391 
L 3272 2541 
Q 2913 2691 2578 2766 
Q 2244 2841 1947 2841 
Q 1628 2841 1473 2761 
Q 1319 2681 1319 2516 
Q 1319 2381 1436 2309 
Q 1553 2238 1856 2203 
L 2053 2175 
Q 2913 2066 3209 1816 
Q 3506 1566 3506 1031 
Q 3506 472 3093 190 
Q 2681 -91 1863 -91 
Q 1516 -91 1145 -36 
Q 775 19 384 128 
L 384 978 
Q 719 816 1070 734 
Q 1422 653 1784 653 
Q 2113 653 2278 743 
Q 2444 834 2444 1013 
Q 2444 1163 2330 1236 
Q 2216 1309 1875 1350 
L 1678 1375 
Q 931 1469 631 1722 
Q 331 1975 331 2491 
Q 331 3047 712 3315 
Q 1094 3584 1881 3584 
Q 2191 3584 2531 3537 
Q 2872 3491 3272 3391 
z
" transform="scale(0.015625)"/>
       <path id="DejaVuSans-Bold-53" d="M 1656 506 
L 1656 -1331 
L 538 -1331 
L 538 3500 
L 1656 3500 
L 1656 2988 
Q 1888 3294 2169 3439 
Q 2450 3584 2816 3584 
Q 3463 3584 3878 3070 
Q 4294 2556 4294 1747 
Q 4294 938 3878 423 
Q 3463 -91 2816 -91 
Q 2450 -91 2169 54 
Q 1888 200 1656 506 
z
M 2400 2772 
Q 2041 2772 1848 2508 
Q 1656 2244 1656 1747 
Q 1656 1250 1848 986 
Q 2041 722 2400 722 
Q 2759 722 2948 984 
Q 3138 1247 3138 1747 
Q 3138 2247 2948 2509 
Q 2759 2772 2400 2772 
z
" transform="scale(0.015625)"/>
       <path id="DejaVuSans-Bold-44" d="M 2106 1575 
Q 1756 1575 1579 1456 
Q 1403 1338 1403 1106 
Q 1403 894 1545 773 
Q 1688 653 1941 653 
Q 2256 653 2472 879 
Q 2688 1106 2688 1447 
L 2688 1575 
L 2106 1575 
z
M 3816 1997 
L 3816 0 
L 2688 0 
L 2688 519 
Q 2463 200 2181 54 
Q 1900 -91 1497 -91 
Q 953 -91 614 226 
Q 275 544 275 1050 
Q 275 1666 698 1953 
Q 1122 2241 2028 2241 
L 2688 2241 
L 2688 2328 
Q 2688 2594 2478 2717 
Q 2269 2841 1825 2841 
Q 1466 2841 1156 2769 
Q 847 2697 581 2553 
L 581 3406 
Q 941 3494 1303 3539 
Q 1666 3584 2028 3584 
Q 2975 3584 3395 3211 
Q 3816 2838 3816 1997 
z
" transform="scale(0.015625)"/>
       <path id="DejaVuSans-Bold-46" d="M 3366 3391 
L 3366 2478 
Q 3138 2634 2908 2709 
Q 2678 2784 2431 2784 
Q 1963 2784 1702 2511 
Q 1441 2238 1441 1747 
Q 1441 1256 1702 982 
Q 1963 709 2431 709 
Q 2694 709 2930 787 
Q 3166 866 3366 1019 
L 3366 103 
Q 3103 6 2833 -42 
Q 2563 -91 2291 -91 
Q 1344 -91 809 395 
Q 275 881 275 1747 
Q 275 2613 809 3098 
Q 1344 3584 2291 3584 
Q 2566 3584 2833 3536 
Q 3100 3488 3366 3391 
z
" transform="scale(0.015625)"/>
       <path id="DejaVuSans-Bold-48" d="M 4031 1759 
L 4031 1441 
L 1416 1441 
Q 1456 1047 1700 850 
Q 1944 653 2381 653 
Q 2734 653 3104 758 
Q 3475 863 3866 1075 
L 3866 213 
Q 3469 63 3072 -14 
Q 2675 -91 2278 -91 
Q 1328 -91 801 392 
Q 275 875 275 1747 
Q 275 2603 792 3093 
Q 1309 3584 2216 3584 
Q 3041 3584 3536 3087 
Q 4031 2591 4031 1759 
z
M 2881 2131 
Q 2881 2450 2695 2645 
Q 2509 2841 2209 2841 
Q 1884 2841 1681 2658 
Q 1478 2475 1428 2131 
L 2881 2131 
z
" transform="scale(0.015625)"/>
       <path id="DejaVuSans-Bold-3" transform="scale(0.015625)"/>
       <path id="DejaVuSans-Bold-47" d="M 2919 2988 
L 2919 4863 
L 4044 4863 
L 4044 0 
L 2919 0 
L 2919 506 
Q 2688 197 2409 53 
Q 2131 -91 1766 -91 
Q 1119 -91 703 423 
Q 288 938 288 1747 
Q 288 2556 703 3070 
Q 1119 3584 1766 3584 
Q 2128 3584 2408 3439 
Q 2688 3294 2919 2988 
z
M 2181 722 
Q 2541 722 2730 984 
Q 2919 1247 2919 1747 
Q 2919 2247 2730 2509 
Q 2541 2772 2181 2772 
Q 1825 2772 1636 2509 
Q 1447 2247 1447 1747 
Q 1447 1247 1636 984 
Q 1825 722 2181 722 
z
" transform="scale(0.015625)"/>
       <path id="DejaVuSans-Bold-4c" d="M 538 3500 
L 1656 3500 
L 1656 0 
L 538 0 
L 538 3500 
z
M 538 4863 
L 1656 4863 
L 1656 3950 
L 538 3950 
L 538 4863 
z
" transform="scale(0.015625)"/>
       <path id="DejaVuSans-Bold-57" d="M 1759 4494 
L 1759 3500 
L 2913 3500 
L 2913 2700 
L 1759 2700 
L 1759 1216 
Q 1759 972 1856 886 
Q 1953 800 2241 800 
L 2816 800 
L 2816 0 
L 1856 0 
Q 1194 0 917 276 
Q 641 553 641 1216 
L 641 2700 
L 84 2700 
L 84 3500 
L 641 3500 
L 641 4494 
L 1759 4494 
z
" transform="scale(0.015625)"/>
       <path id="DejaVuSans-Bold-b" d="M 2413 -844 
L 1484 -844 
Q 1006 -72 778 623 
Q 550 1319 550 2003 
Q 550 2688 779 3389 
Q 1009 4091 1484 4856 
L 2413 4856 
Q 2013 4116 1813 3408 
Q 1613 2700 1613 2009 
Q 1613 1319 1811 609 
Q 2009 -100 2413 -844 
z
" transform="scale(0.015625)"/>
       <path id="DejaVuSans-Bold-55" d="M 3138 2547 
Q 2991 2616 2845 2648 
Q 2700 2681 2553 2681 
Q 2122 2681 1889 2404 
Q 1656 2128 1656 1613 
L 1656 0 
L 538 0 
L 538 3500 
L 1656 3500 
L 1656 2925 
Q 1872 3269 2151 3426 
Q 2431 3584 2822 3584 
Q 2878 3584 2943 3579 
Q 3009 3575 3134 3559 
L 3138 2547 
z
" transform="scale(0.015625)"/>
       <path id="DejaVuSans-Bold-c" d="M 513 -844 
Q 913 -100 1113 609 
Q 1313 1319 1313 2009 
Q 1313 2700 1113 3408 
Q 913 4116 513 4856 
L 1441 4856 
Q 1916 4091 2145 3389 
Q 2375 2688 2375 2003 
Q 2375 1319 2147 623 
Q 1919 -72 1441 -844 
L 513 -844 
z
" transform="scale(0.015625)"/>
      </defs>
      <use xlink:href="#DejaVuSans-Bold-26"/>
      <use xlink:href="#DejaVuSans-Bold-52" transform="translate(73.390625 0)"/>
      <use xlink:href="#DejaVuSans-Bold-51" transform="translate(142.09375 0)"/>
      <use xlink:href="#DejaVuSans-Bold-13ab" transform="translate(213.28125 0)"/>
      <use xlink:href="#DejaVuSans-Bold-4a" transform="translate(287.40625 0)"/>
      <use xlink:href="#DejaVuSans-Bold-10" transform="translate(358.984375 0)"/>
      <use xlink:href="#DejaVuSans-Bold-56" transform="translate(400.484375 0)"/>
      <use xlink:href="#DejaVuSans-Bold-53" transform="translate(460 0)"/>
      <use xlink:href="#DejaVuSans-Bold-44" transform="translate(531.578125 0)"/>
      <use xlink:href="#DejaVuSans-Bold-46" transform="translate(599.0625 0)"/>
      <use xlink:href="#DejaVuSans-Bold-48" transform="translate(658.34375 0)"/>
      <use xlink:href="#DejaVuSans-Bold-3" transform="translate(726.171875 0)"/>
      <use xlink:href="#DejaVuSans-Bold-47" transform="translate(760.984375 0)"/>
      <use xlink:href="#DejaVuSans-Bold-4c" transform="translate(832.5625 0)"/>
      <use xlink:href="#DejaVuSans-Bold-56" transform="translate(866.84375 0)"/>
      <use xlink:href="#DejaVuSans-Bold-57" transform="translate(926.359375 0)"/>
      <use xlink:href="#DejaVuSans-Bold-44" transform="translate(974.15625 0)"/>
      <use xlink:href="#DejaVuSans-Bold-51" transform="translate(1041.640625 0)"/>
      <use xlink:href="#DejaVuSans-Bold-46" transform="translate(1112.828125 0)"/>
      <use xlink:href="#DejaVuSans-Bold-48" transform="translate(1172.109375 0)"/>
      <use xlink:href="#DejaVuSans-Bold-3" transform="translate(1239.9375 0)"/>
      <use xlink:href="#DejaVuSans-Bold-b" transform="translate(1274.75 0)"/>
      <use xlink:href="#DejaVuSans-Bold-55" transform="translate(1320.453125 0)"/>
      <use xlink:href="#DejaVuSans-Bold-44" transform="translate(1369.765625 0)"/>
      <use xlink:href="#DejaVuSans-Bold-47" transform="translate(1437.25 0)"/>
      <use xlink:href="#DejaVuSans-Bold-c" transform="translate(1508.828125 0)"/>
     </g>
    </g>
   </g>
   <g id="patch_3">
    <path d="M 71.294382 177.606367 
L 119.750927 177.606367 
L 119.750927 127.465706 
L 71.294382 127.465706 
L 71.294382 177.606367 
z
" clip-path="url(#pd522eeff3f)" style="fill: #72b6a1; opacity: 0.85; stroke: #262626; stroke-width: 1.8; stroke-linejoin: miter"/>
   </g>
   <g id="line2d_5">
    <path d="M 95.522654 177.606367 
L 95.522654 233.982188 
" clip-path="url(#pd522eeff3f)" style="fill: none; stroke: #262626; stroke-width: 1.8"/>
   </g>
   <g id="line2d_6">
    <path d="M 95.522654 127.465706 
L 95.522654 66.826414 
" clip-path="url(#pd522eeff3f)" style="fill: none; stroke: #262626; stroke-width: 1.8"/>
   </g>
   <g id="line2d_7">
    <path d="M 83.408518 233.982188 
L 107.63679 233.982188 
" clip-path="url(#pd522eeff3f)" style="fill: none; stroke: #262626; stroke-width: 1.8; stroke-linecap: round"/>
   </g>
   <g id="line2d_8">
    <path d="M 83.408518 66.826414 
L 107.63679 66.826414 
" clip-path="url(#pd522eeff3f)" style="fill: none; stroke: #262626; stroke-width: 1.8; stroke-linecap: round"/>
   </g>
   <g id="line2d_9"/>
   <g id="patch_4">
    <path d="M 159.397191 215.114757 
L 207.853735 215.114757 
L 207.853735 199.977316 
L 159.397191 199.977316 
L 159.397191 215.114757 
z
" clip-path="url(#pd522eeff3f)" style="fill: #e99675; opacity: 0.85; stroke: #262626; stroke-width: 1.8; stroke-linejoin: miter"/>
   </g>
   <g id="line2d_10">
    <path d="M 183.625463 215.114757 
L 183.625463 229.112725 
" clip-path="url(#pd522eeff3f)" style="fill: none; stroke: #262626; stroke-width: 1.8"/>
   </g>
   <g id="line2d_11">
    <path d="M 183.625463 199.977316 
L 183.625463 178.950116 
" clip-path="url(#pd522eeff3f)" style="fill: none; stroke: #262626; stroke-width: 1.8"/>
   </g>
   <g id="line2d_12">
    <path d="M 171.511327 229.112725 
L 195.739599 229.112725 
" clip-path="url(#pd522eeff3f)" style="fill: none; stroke: #262626; stroke-width: 1.8; stroke-linecap: round"/>
   </g>
   <g id="line2d_13">
    <path d="M 171.511327 178.950116 
L 195.739599 178.950116 
" clip-path="url(#pd522eeff3f)" style="fill: none; stroke: #262626; stroke-width: 1.8; stroke-linecap: round"/>
   </g>
   <g id="line2d_14"/>
   <g id="patch_5">
    <path d="M 247.499999 230.66785 
L 295.956544 230.66785 
L 295.956544 211.701553 
L 247.499999 211.701553 
L 247.499999 230.66785 
z
" clip-path="url(#pd522eeff3f)" style="fill: #95a3c3; opacity: 0.85; stroke: #262626; stroke-width: 1.8; stroke-linejoin: miter"/>
   </g>
   <g id="line2d_15">
    <path d="M 271.728272 230.66785 
L 271.728272 240.99494 
" clip-path="url(#pd522eeff3f)" style="fill: none; stroke: #262626; stroke-width: 1.8"/>
   </g>
   <g id="line2d_16">
    <path d="M 271.728272 211.701553 
L 271.728272 190.455916 
" clip-path="url(#pd522eeff3f)" style="fill: none; stroke: #262626; stroke-width: 1.8"/>
   </g>
   <g id="line2d_17">
    <path d="M 259.614135 240.99494 
L 283.842408 240.99494 
" clip-path="url(#pd522eeff3f)" style="fill: none; stroke: #262626; stroke-width: 1.8; stroke-linecap: round"/>
   </g>
   <g id="line2d_18">
    <path d="M 259.614135 190.455916 
L 283.842408 190.455916 
" clip-path="url(#pd522eeff3f)" style="fill: none; stroke: #262626; stroke-width: 1.8; stroke-linecap: round"/>
   </g>
   <g id="line2d_19"/>
   <g id="line2d_20">
    <path d="M 71.294382 151.263513 
L 119.750927 151.263513 
" clip-path="url(#pd522eeff3f)" style="fill: none; stroke: #000000; stroke-width: 3.2"/>
   </g>
   <g id="line2d_21">
    <path d="M 159.397191 209.684481 
L 207.853735 209.684481 
" clip-path="url(#pd522eeff3f)" style="fill: none; stroke: #000000; stroke-width: 3.2"/>
   </g>
   <g id="line2d_22">
    <path d="M 247.499999 222.328844 
L 295.956544 222.328844 
" clip-path="url(#pd522eeff3f)" style="fill: none; stroke: #000000; stroke-width: 3.2"/>
   </g>
   <g id="patch_6">
    <path d="M 51.47125 250.91862 
L 51.47125 32.597656 
" style="fill: none; stroke: #262626; stroke-width: 1.8; stroke-linejoin: miter; stroke-linecap: square"/>
   </g>
   <g id="patch_7">
    <path d="M 51.47125 250.91862 
L 315.779676 250.91862 
" style="fill: none; stroke: #262626; stroke-width: 1.8; stroke-linejoin: miter; stroke-linecap: square"/>
   </g>
   <g id="text_9">
    <!-- Config-space distance (rad) -->
    <g style="fill: #262626" transform="translate(67.035619 18.597656) scale(0.15 -0.15)">
     <use xlink:href="#DejaVuSans-Bold-26"/>
     <use xlink:href="#DejaVuSans-Bold-52" transform="translate(73.390625 0)"/>
     <use xlink:href="#DejaVuSans-Bold-51" transform="translate(142.09375 0)"/>
     <use xlink:href="#DejaVuSans-Bold-13ab" transform="translate(213.28125 0)"/>
     <use xlink:href="#DejaVuSans-Bold-4a" transform="translate(287.40625 0)"/>
     <use xlink:href="#DejaVuSans-Bold-10" transform="translate(358.984375 0)"/>
     <use xlink:href="#DejaVuSans-Bold-56" transform="translate(400.484375 0)"/>
     <use xlink:href="#DejaVuSans-Bold-53" transform="translate(460 0)"/>
     <use xlink:href="#DejaVuSans-Bold-44" transform="translate(531.578125 0)"/>
     <use xlink:href="#DejaVuSans-Bold-46" transform="translate(599.0625 0)"/>
     <use xlink:href="#DejaVuSans-Bold-48" transform="translate(658.34375 0)"/>
     <use xlink:href="#DejaVuSans-Bold-3" transform="translate(726.171875 0)"/>
     <use xlink:href="#DejaVuSans-Bold-47" transform="translate(760.984375 0)"/>
     <use xlink:href="#DejaVuSans-Bold-4c" transform="translate(832.5625 0)"/>
     <use xlink:href="#DejaVuSans-Bold-56" transform="translate(866.84375 0)"/>
     <use xlink:href="#DejaVuSans-Bold-57" transform="translate(926.359375 0)"/>
     <use xlink:href="#DejaVuSans-Bold-44" transform="translate(974.15625 0)"/>
     <use xlink:href="#DejaVuSans-Bold-51" transform="translate(1041.640625 0)"/>
     <use xlink:href="#DejaVuSans-Bold-46" transform="translate(1112.828125 0)"/>
     <use xlink:href="#DejaVuSans-Bold-48" transform="translate(1172.109375 0)"/>
     <use xlink:href="#DejaVuSans-Bold-3" transform="translate(1239.9375 0)"/>
     <use xlink:href="#DejaVuSans-Bold-b" transform="translate(1274.75 0)"/>
     <use xlink:href="#DejaVuSans-Bold-55" transform="translate(1320.453125 0)"/>
     <use xlink:href="#DejaVuSans-Bold-44" transform="translate(1369.765625 0)"/>
     <use xlink:href="#DejaVuSans-Bold-47" transform="translate(1437.25 0)"/>
     <use xlink:href="#DejaVuSans-Bold-c" transform="translate(1508.828125 0)"/>
    </g>
   </g>
  </g>
  <g id="axes_2">
   <g id="patch_8">
    <path d="M 385.17685 250.91862 
L 649.485276 250.91862 
L 649.485276 32.597656 
L 385.17685 32.597656 
z
" style="fill: #ffffff"/>
   </g>
   <g id="matplotlib.axis_3">
    <g id="xtick_4">
     <g id="text_10">
      <!-- McVAMP -->
      <g style="fill: #262626" transform="translate(402.328087 303.907491) rotate(-30) scale(0.16 -0.16)">
       <use xlink:href="#DejaVuSans-30"/>
       <use xlink:href="#DejaVuSans-46" transform="translate(86.28125 0)"/>
       <use xlink:href="#DejaVuSans-39" transform="translate(141.265625 0)"/>
       <use xlink:href="#DejaVuSans-24" transform="translate(203.28125 0)"/>
       <use xlink:href="#DejaVuSans-30" transform="translate(271.6875 0)"/>
       <use xlink:href="#DejaVuSans-33" transform="translate(357.96875 0)"/>
      </g>
     </g>
    </g>
    <g id="xtick_5">
     <g id="text_11">
      <!-- LeaderFollower -->
      <g style="fill: #262626" transform="translate(466.809282 331.184824) rotate(-30) scale(0.16 -0.16)">
       <use xlink:href="#DejaVuSans-2f"/>
       <use xlink:href="#DejaVuSans-48" transform="translate(53.96875 0)"/>
       <use xlink:href="#DejaVuSans-44" transform="translate(115.5 0)"/>
       <use xlink:href="#DejaVuSans-47" transform="translate(176.78125 0)"/>
       <use xlink:href="#DejaVuSans-48" transform="translate(240.265625 0)"/>
       <use xlink:href="#DejaVuSans-55" transform="translate(301.796875 0)"/>
       <use xlink:href="#DejaVuSans-29" transform="translate(342.90625 0)"/>
       <use xlink:href="#DejaVuSans-52" transform="translate(396.859375 0)"/>
       <use xlink:href="#DejaVuSans-4f" transform="translate(458.046875 0)"/>
       <use xlink:href="#DejaVuSans-4f" transform="translate(485.828125 0)"/>
       <use xlink:href="#DejaVuSans-52" transform="translate(513.609375 0)"/>
       <use xlink:href="#DejaVuSans-5a" transform="translate(574.796875 0)"/>
       <use xlink:href="#DejaVuSans-48" transform="translate(656.578125 0)"/>
       <use xlink:href="#DejaVuSans-55" transform="translate(718.109375 0)"/>
      </g>
     </g>
    </g>
    <g id="xtick_6">
     <g id="text_12">
      <!-- DualFollower -->
      <g style="fill: #262626" transform="translate(562.773437 322.107324) rotate(-30) scale(0.16 -0.16)">
       <use xlink:href="#DejaVuSans-27"/>
       <use xlink:href="#DejaVuSans-58" transform="translate(77 0)"/>
       <use xlink:href="#DejaVuSans-44" transform="translate(140.375 0)"/>
       <use xlink:href="#DejaVuSans-4f" transform="translate(201.65625 0)"/>
       <use xlink:href="#DejaVuSans-29" transform="translate(229.4375 0)"/>
       <use xlink:href="#DejaVuSans-52" transform="translate(283.390625 0)"/>
       <use xlink:href="#DejaVuSans-4f" transform="translate(344.578125 0)"/>
       <use xlink:href="#DejaVuSans-4f" transform="translate(372.359375 0)"/>
       <use xlink:href="#DejaVuSans-52" transform="translate(400.140625 0)"/>
       <use xlink:href="#DejaVuSans-5a" transform="translate(461.328125 0)"/>
       <use xlink:href="#DejaVuSans-48" transform="translate(543.109375 0)"/>
       <use xlink:href="#DejaVuSans-55" transform="translate(604.640625 0)"/>
      </g>
     </g>
    </g>
   </g>
   <g id="matplotlib.axis_4">
    <g id="ytick_5">
     <g id="line2d_23">
      <path d="M 385.17685 250.406191 
L 649.485276 250.406191 
" clip-path="url(#p1c0a1bc6bd)" style="fill: none; stroke: #e0e0e0; stroke-width: 0.7; stroke-linecap: round"/>
     </g>
     <g id="text_13">
      <!-- 0 -->
      <g style="fill: #262626" transform="translate(368.54185 254.964785) scale(0.12 -0.12)">
       <defs>
        <path id="DejaVuSans-13" d="M 2034 4250 
Q 1547 4250 1301 3770 
Q 1056 3291 1056 2328 
Q 1056 1369 1301 889 
Q 1547 409 2034 409 
Q 2525 409 2770 889 
Q 3016 1369 3016 2328 
Q 3016 3291 2770 3770 
Q 2525 4250 2034 4250 
z
M 2034 4750 
Q 2819 4750 3233 4129 
Q 3647 3509 3647 2328 
Q 3647 1150 3233 529 
Q 2819 -91 2034 -91 
Q 1250 -91 836 529 
Q 422 1150 422 2328 
Q 422 3509 836 4129 
Q 1250 4750 2034 4750 
z
" transform="scale(0.015625)"/>
       </defs>
       <use xlink:href="#DejaVuSans-13"/>
      </g>
     </g>
    </g>
    <g id="ytick_6">
     <g id="line2d_24">
      <path d="M 385.17685 201.454866 
L 649.485276 201.454866 
" clip-path="url(#p1c0a1bc6bd)" style="fill: none; stroke: #e0e0e0; stroke-width: 0.7; stroke-linecap: round"/>
     </g>
     <g id="text_14">
      <!-- 3 -->
      <g style="fill: #262626" transform="translate(368.54185 206.01346) scale(0.12 -0.12)">
       <defs>
        <path id="DejaVuSans-16" d="M 2597 2516 
Q 3050 2419 3304 2112 
Q 3559 1806 3559 1356 
Q 3559 666 3084 287 
Q 2609 -91 1734 -91 
Q 1441 -91 1130 -33 
Q 819 25 488 141 
L 488 750 
Q 750 597 1062 519 
Q 1375 441 1716 441 
Q 2309 441 2620 675 
Q 2931 909 2931 1356 
Q 2931 1769 2642 2001 
Q 2353 2234 1838 2234 
L 1294 2234 
L 1294 2753 
L 1863 2753 
Q 2328 2753 2575 2939 
Q 2822 3125 2822 3475 
Q 2822 3834 2567 4026 
Q 2313 4219 1838 4219 
Q 1578 4219 1281 4162 
Q 984 4106 628 3988 
L 628 4550 
Q 988 4650 1302 4700 
Q 1616 4750 1894 4750 
Q 2613 4750 3031 4423 
Q 3450 4097 3450 3541 
Q 3450 3153 3228 2886 
Q 3006 2619 2597 2516 
z
" transform="scale(0.015625)"/>
       </defs>
       <use xlink:href="#DejaVuSans-16"/>
      </g>
     </g>
    </g>
    <g id="ytick_7">
     <g id="line2d_25">
      <path d="M 385.17685 152.503541 
L 649.485276 152.503541 
" clip-path="url(#p1c0a1bc6bd)" style="fill: none; stroke: #e0e0e0; stroke-width: 0.7; stroke-linecap: round"/>
     </g>
     <g id="text_15">
      <!-- 6 -->
      <g style="fill: #262626" transform="translate(368.54185 157.062135) scale(0.12 -0.12)">
       <use xlink:href="#DejaVuSans-19"/>
      </g>
     </g>
    </g>
    <g id="ytick_8">
     <g id="line2d_26">
      <path d="M 385.17685 103.552217 
L 649.485276 103.552217 
" clip-path="url(#p1c0a1bc6bd)" style="fill: none; stroke: #e0e0e0; stroke-width: 0.7; stroke-linecap: round"/>
     </g>
     <g id="text_16">
      <!-- 9 -->
      <g style="fill: #262626" transform="translate(368.54185 108.11081) scale(0.12 -0.12)">
       <defs>
        <path id="DejaVuSans-1c" d="M 703 97 
L 703 672 
Q 941 559 1184 500 
Q 1428 441 1663 441 
Q 2288 441 2617 861 
Q 2947 1281 2994 2138 
Q 2813 1869 2534 1725 
Q 2256 1581 1919 1581 
Q 1219 1581 811 2004 
Q 403 2428 403 3163 
Q 403 3881 828 4315 
Q 1253 4750 1959 4750 
Q 2769 4750 3195 4129 
Q 3622 3509 3622 2328 
Q 3622 1225 3098 567 
Q 2575 -91 1691 -91 
Q 1453 -91 1209 -44 
Q 966 3 703 97 
z
M 1959 2075 
Q 2384 2075 2632 2365 
Q 2881 2656 2881 3163 
Q 2881 3666 2632 3958 
Q 2384 4250 1959 4250 
Q 1534 4250 1286 3958 
Q 1038 3666 1038 3163 
Q 1038 2656 1286 2365 
Q 1534 2075 1959 2075 
z
" transform="scale(0.015625)"/>
       </defs>
       <use xlink:href="#DejaVuSans-1c"/>
      </g>
     </g>
    </g>
    <g id="ytick_9">
     <g id="line2d_27">
      <path d="M 385.17685 54.600892 
L 649.485276 54.600892 
" clip-path="url(#p1c0a1bc6bd)" style="fill: none; stroke: #e0e0e0; stroke-width: 0.7; stroke-linecap: round"/>
     </g>
     <g id="text_17">
      <!-- 12 -->
      <g style="fill: #262626" transform="translate(360.90685 59.159485) scale(0.12 -0.12)">
       <use xlink:href="#DejaVuSans-14"/>
       <use xlink:href="#DejaVuSans-15" transform="translate(63.625 0)"/>
      </g>
     </g>
    </g>
    <g id="text_18">
     <!-- EEF-space distance -->
     <g style="fill: #262626" transform="translate(353.0631 228.383138) rotate(-90) scale(0.16 -0.16)">
      <defs>
       <path id="DejaVuSans-Bold-28" d="M 588 4666 
L 3834 4666 
L 3834 3756 
L 1791 3756 
L 1791 2888 
L 3713 2888 
L 3713 1978 
L 1791 1978 
L 1791 909 
L 3903 909 
L 3903 0 
L 588 0 
L 588 4666 
z
" transform="scale(0.015625)"/>
       <path id="DejaVuSans-Bold-29" d="M 588 4666 
L 3834 4666 
L 3834 3756 
L 1791 3756 
L 1791 2888 
L 3713 2888 
L 3713 1978 
L 1791 1978 
L 1791 0 
L 588 0 
L 588 4666 
z
" transform="scale(0.015625)"/>
      </defs>
      <use xlink:href="#DejaVuSans-Bold-28"/>
      <use xlink:href="#DejaVuSans-Bold-28" transform="translate(68.3125 0)"/>
      <use xlink:href="#DejaVuSans-Bold-29" transform="translate(136.625 0)"/>
      <use xlink:href="#DejaVuSans-Bold-10" transform="translate(201.859375 0)"/>
      <use xlink:href="#DejaVuSans-Bold-56" transform="translate(243.359375 0)"/>
      <use xlink:href="#DejaVuSans-Bold-53" transform="translate(302.875 0)"/>
      <use xlink:href="#DejaVuSans-Bold-44" transform="translate(374.453125 0)"/>
      <use xlink:href="#DejaVuSans-Bold-46" transform="translate(441.9375 0)"/>
      <use xlink:href="#DejaVuSans-Bold-48" transform="translate(501.21875 0)"/>
      <use xlink:href="#DejaVuSans-Bold-3" transform="translate(569.046875 0)"/>
      <use xlink:href="#DejaVuSans-Bold-47" transform="translate(603.859375 0)"/>
      <use xlink:href="#DejaVuSans-Bold-4c" transform="translate(675.4375 0)"/>
      <use xlink:href="#DejaVuSans-Bold-56" transform="translate(709.71875 0)"/>
      <use xlink:href="#DejaVuSans-Bold-57" transform="translate(769.234375 0)"/>
      <use xlink:href="#DejaVuSans-Bold-44" transform="translate(817.03125 0)"/>
      <use xlink:href="#DejaVuSans-Bold-51" transform="translate(884.515625 0)"/>
      <use xlink:href="#DejaVuSans-Bold-46" transform="translate(955.703125 0)"/>
      <use xlink:href="#DejaVuSans-Bold-48" transform="translate(1014.984375 0)"/>
     </g>
    </g>
   </g>
   <g id="patch_9">
    <path d="M 404.999982 181.182042 
L 453.456527 181.182042 
L 453.456527 123.709189 
L 404.999982 123.709189 
L 404.999982 181.182042 
z
" clip-path="url(#p1c0a1bc6bd)" style="fill: #72b6a1; opacity: 0.85; stroke: #262626; stroke-width: 1.8; stroke-linejoin: miter"/>
   </g>
   <g id="line2d_28">
    <path d="M 429.228254 181.182042 
L 429.228254 227.848442 
" clip-path="url(#p1c0a1bc6bd)" style="fill: none; stroke: #262626; stroke-width: 1.8"/>
   </g>
   <g id="line2d_29">
    <path d="M 429.228254 123.709189 
L 429.228254 42.521336 
" clip-path="url(#p1c0a1bc6bd)" style="fill: none; stroke: #262626; stroke-width: 1.8"/>
   </g>
   <g id="line2d_30">
    <path d="M 417.114118 227.848442 
L 441.34239 227.848442 
" clip-path="url(#p1c0a1bc6bd)" style="fill: none; stroke: #262626; stroke-width: 1.8; stroke-linecap: round"/>
   </g>
   <g id="line2d_31">
    <path d="M 417.114118 42.521336 
L 441.34239 42.521336 
" clip-path="url(#p1c0a1bc6bd)" style="fill: none; stroke: #262626; stroke-width: 1.8; stroke-linecap: round"/>
   </g>
   <g id="line2d_32"/>
   <g id="patch_10">
    <path d="M 493.102791 213.504113 
L 541.559335 213.504113 
L 541.559335 198.659093 
L 493.102791 198.659093 
L 493.102791 213.504113 
z
" clip-path="url(#p1c0a1bc6bd)" style="fill: #e99675; opacity: 0.85; stroke: #262626; stroke-width: 1.8; stroke-linejoin: miter"/>
   </g>
   <g id="line2d_33">
    <path d="M 517.331063 213.504113 
L 517.331063 223.140793 
" clip-path="url(#p1c0a1bc6bd)" style="fill: none; stroke: #262626; stroke-width: 1.8"/>
   </g>
   <g id="line2d_34">
    <path d="M 517.331063 198.659093 
L 517.331063 177.369999 
" clip-path="url(#p1c0a1bc6bd)" style="fill: none; stroke: #262626; stroke-width: 1.8"/>
   </g>
   <g id="line2d_35">
    <path d="M 505.216927 223.140793 
L 529.445199 223.140793 
" clip-path="url(#p1c0a1bc6bd)" style="fill: none; stroke: #262626; stroke-width: 1.8; stroke-linecap: round"/>
   </g>
   <g id="line2d_36">
    <path d="M 505.216927 177.369999 
L 529.445199 177.369999 
" clip-path="url(#p1c0a1bc6bd)" style="fill: none; stroke: #262626; stroke-width: 1.8; stroke-linecap: round"/>
   </g>
   <g id="line2d_37"/>
   <g id="patch_11">
    <path d="M 581.205599 235.014916 
L 629.662144 235.014916 
L 629.662144 228.667683 
L 581.205599 228.667683 
L 581.205599 235.014916 
z
" clip-path="url(#p1c0a1bc6bd)" style="fill: #95a3c3; opacity: 0.85; stroke: #262626; stroke-width: 1.8; stroke-linejoin: miter"/>
   </g>
   <g id="line2d_38">
    <path d="M 605.433872 235.014916 
L 605.433872 240.99494 
" clip-path="url(#p1c0a1bc6bd)" style="fill: none; stroke: #262626; stroke-width: 1.8"/>
   </g>
   <g id="line2d_39">
    <path d="M 605.433872 228.667683 
L 605.433872 219.375294 
" clip-path="url(#p1c0a1bc6bd)" style="fill: none; stroke: #262626; stroke-width: 1.8"/>
   </g>
   <g id="line2d_40">
    <path d="M 593.319735 240.99494 
L 617.548008 240.99494 
" clip-path="url(#p1c0a1bc6bd)" style="fill: none; stroke: #262626; stroke-width: 1.8; stroke-linecap: round"/>
   </g>
   <g id="line2d_41">
    <path d="M 593.319735 219.375294 
L 617.548008 219.375294 
" clip-path="url(#p1c0a1bc6bd)" style="fill: none; stroke: #262626; stroke-width: 1.8; stroke-linecap: round"/>
   </g>
   <g id="line2d_42"/>
   <g id="line2d_43">
    <path d="M 404.999982 149.743666 
L 453.456527 149.743666 
" clip-path="url(#p1c0a1bc6bd)" style="fill: none; stroke: #000000; stroke-width: 3.2"/>
   </g>
   <g id="line2d_44">
    <path d="M 493.102791 207.544656 
L 541.559335 207.544656 
" clip-path="url(#p1c0a1bc6bd)" style="fill: none; stroke: #000000; stroke-width: 3.2"/>
   </g>
   <g id="line2d_45">
    <path d="M 581.205599 231.840504 
L 629.662144 231.840504 
" clip-path="url(#p1c0a1bc6bd)" style="fill: none; stroke: #000000; stroke-width: 3.2"/>
   </g>
   <g id="patch_12">
    <path d="M 385.17685 250.91862 
L 385.17685 32.597656 
" style="fill: none; stroke: #262626; stroke-width: 1.8; stroke-linejoin: miter; stroke-linecap: square"/>
   </g>
   <g id="patch_13">
    <path d="M 385.17685 250.91862 
L 649.485276 250.91862 
" style="fill: none; stroke: #262626; stroke-width: 1.8; stroke-linejoin: miter; stroke-linecap: square"/>
   </g>
   <g id="text_19">
    <!-- EEF-space distance -->
    <g style="fill: #262626" transform="translate(436.120125 18.597656) scale(0.15 -0.15)">
     <use xlink:href="#DejaVuSans-Bold-28"/>
     <use xlink:href="#DejaVuSans-Bold-28" transform="translate(68.3125 0)"/>
     <use xlink:href="#DejaVuSans-Bold-29" transform="translate(136.625 0)"/>
     <use xlink:href="#DejaVuSans-Bold-10" transform="translate(201.859375 0)"/>
     <use xlink:href="#DejaVuSans-Bold-56" transform="translate(243.359375 0)"/>
     <use xlink:href="#DejaVuSans-Bold-53" transform="translate(302.875 0)"/>
     <use xlink:href="#DejaVuSans-Bold-44" transform="translate(374.453125 0)"/>
     <use xlink:href="#DejaVuSans-Bold-46" transform="translate(441.9375 0)"/>
     <use xlink:href="#DejaVuSans-Bold-48" transform="translate(501.21875 0)"/>
     <use xlink:href="#DejaVuSans-Bold-3" transform="translate(569.046875 0)"/>
     <use xlink:href="#DejaVuSans-Bold-47" transform="translate(603.859375 0)"/>
     <use xlink:href="#DejaVuSans-Bold-4c" transform="translate(675.4375 0)"/>
     <use xlink:href="#DejaVuSans-Bold-56" transform="translate(709.71875 0)"/>
     <use xlink:href="#DejaVuSans-Bold-57" transform="translate(769.234375 0)"/>
     <use xlink:href="#DejaVuSans-Bold-44" transform="translate(817.03125 0)"/>
     <use xlink:href="#DejaVuSans-Bold-51" transform="translate(884.515625 0)"/>
     <use xlink:href="#DejaVuSans-Bold-46" transform="translate(955.703125 0)"/>
     <use xlink:href="#DejaVuSans-Bold-48" transform="translate(1014.984375 0)"/>
    </g>
   </g>
  </g>
 </g>
 <defs>
  <clipPath id="pd522eeff3f">
   <rect x="51.47125" y="32.597656" width="264.308426" height="218.320964"/>
  </clipPath>
  <clipPath id="p1c0a1bc6bd">
   <rect x="385.17685" y="32.597656" width="264.308426" height="218.320964"/>
  </clipPath>
 </defs>
</svg>
