mtllib table_top.mtl
o table_top
v 1.100000 -0.800000 -0.020000
v 1.100000 0.800000 -0.020000
v 1.100000 0.800000 0.020000
v 1.100000 -0.800000 0.020000
v -1.100000 -0.800000 0.020000
v -1.100000 0.800000 0.020000
v -1.100000 0.800000 -0.020000
v -1.100000 -0.800000 -0.020000
v -1.100000 0.800000 0.020000
v 1.100000 0.800000 0.020000
v 1.100000 0.800000 -0.020000
v -1.100000 0.800000 -0.020000
v -1.100000 -0.800000 -0.020000
v 1.100000 -0.800000 -0.020000
v 1.100000 -0.800000 0.020000
v -1.100000 -0.800000 0.020000
v -1.100000 -0.800000 0.020000
v 1.100000 -0.800000 0.020000
v 1.100000 0.800000 0.020000
v -1.100000 0.800000 0.020000
v -1.100000 0.800000 -0.020000
v 1.100000 0.800000 -0.020000
v 1.100000 -0.800000 -0.020000
v -1.100000 -0.800000 -0.020000
vt 0.0000 0.0000
vt 3.2000 0.0000
vt 3.2000 0.0800
vt 0.0000 0.0800
vt 0.0000 0.0000
vt 3.2000 0.0000
vt 3.2000 0.0800
vt 0.0000 0.0800
vt 0.0000 0.0000
vt 4.4000 0.0000
vt 4.4000 0.0800
vt 0.0000 0.0800
vt 0.0000 0.0000
vt 4.4000 0.0000
vt 4.4000 0.0800
vt 0.0000 0.0800
vt 0.0000 0.0000
vt 4.4000 0.0000
vt 4.4000 3.2000
vt 0.0000 3.2000
vt 0.0000 0.0000
vt 4.4000 0.0000
vt 4.4000 3.2000
vt 0.0000 3.2000
vn 1.0 0.0 0.0
vn -1.0 0.0 0.0
vn 0.0 1.0 0.0
vn 0.0 -1.0 0.0
vn 0.0 0.0 1.0
vn 0.0 0.0 -1.0
usemtl table_top
f 1/1/1 2/2/1 3/3/1 4/4/1
f 5/5/2 6/6/2 7/7/2 8/8/2
f 9/9/3 10/10/3 11/11/3 12/12/3
f 13/13/4 14/14/4 15/15/4 16/16/4
f 17/17/5 18/18/5 19/19/5 20/20/5
f 21/21/6 22/22/6 23/23/6 24/24/6
