mtllib shelf_1.mtl
o shelf_1
v 0.200000 -0.500000 -0.007000
v 0.200000 0.500000 -0.007000
v 0.200000 0.500000 0.007000
v 0.200000 -0.500000 0.007000
v -0.200000 -0.500000 0.007000
v -0.200000 0.500000 0.007000
v -0.200000 0.500000 -0.007000
v -0.200000 -0.500000 -0.007000
v -0.200000 0.500000 0.007000
v 0.200000 0.500000 0.007000
v 0.200000 0.500000 -0.007000
v -0.200000 0.500000 -0.007000
v -0.200000 -0.500000 -0.007000
v 0.200000 -0.500000 -0.007000
v 0.200000 -0.500000 0.007000
v -0.200000 -0.500000 0.007000
v -0.200000 -0.500000 0.007000
v 0.200000 -0.500000 0.007000
v 0.200000 0.500000 0.007000
v -0.200000 0.500000 0.007000
v -0.200000 0.500000 -0.007000
v 0.200000 0.500000 -0.007000
v 0.200000 -0.500000 -0.007000
v -0.200000 -0.500000 -0.007000
vt 0.0000 0.0000
vt 3.3333 0.0000
vt 3.3333 0.0467
vt 0.0000 0.0467
vt 0.0000 0.0000
vt 3.3333 0.0000
vt 3.3333 0.0467
vt 0.0000 0.0467
vt 0.0000 0.0000
vt 1.3333 0.0000
vt 1.3333 0.0467
vt 0.0000 0.0467
vt 0.0000 0.0000
vt 1.3333 0.0000
vt 1.3333 0.0467
vt 0.0000 0.0467
vt 0.0000 0.0000
vt 1.3333 0.0000
vt 1.3333 3.3333
vt 0.0000 3.3333
vt 0.0000 0.0000
vt 1.3333 0.0000
vt 1.3333 3.3333
vt 0.0000 3.3333
vn 1.0 0.0 0.0
vn -1.0 0.0 0.0
vn 0.0 1.0 0.0
vn 0.0 -1.0 0.0
vn 0.0 0.0 1.0
vn 0.0 0.0 -1.0
usemtl shelf_1
f 1/1/1 2/2/1 3/3/1 4/4/1
f 5/5/2 6/6/2 7/7/2 8/8/2
f 9/9/3 10/10/3 11/11/3 12/12/3
f 13/13/4 14/14/4 15/15/4 16/16/4
f 17/17/5 18/18/5 19/19/5 20/20/5
f 21/21/6 22/22/6 23/23/6 24/24/6
